<svg xmlns="http://www.w3.org/2000/svg" viewBox="0 0 927.5 290.6"><defs><style>.cls-1{fill:#e85350;}.cls-2{fill:#203361;}</style></defs><title>boom-new-logo</title><g id="Layer_2" data-name="Layer 2"><g id="Layer_1-2" data-name="Layer 1"><path class="cls-1" d="M189.8,167.1c0,10.1-2.1,18.7-6.3,26a51.4,51.4,0,0,1-17.3,17.7A81.7,81.7,0,0,1,140.6,221a140.3,140.3,0,0,1-31,3.3H0V1.3H129.4a43.6,43.6,0,0,1,21.1,5,52,52,0,0,1,16,13,60.2,60.2,0,0,1,10.2,18.2,62.9,62.9,0,0,1,3.6,20.9,59.7,59.7,0,0,1-8,30C167,98,159,105.1,148.3,110c12.8,3.7,22.9,10.3,30.3,19.6S189.8,151.4,189.8,167.1ZM61.3,53.4V87.7h41.8a20.2,20.2,0,0,0,11.4-3.5c3.5-2.3,5.2-6.9,5.2-13.8s-1.5-10.4-4.4-13.1a15.1,15.1,0,0,0-10.4-3.9Zm66.3,101.2a21.4,21.4,0,0,0-4.4-13.7,13.9,13.9,0,0,0-11.4-5.5H61.3v37.4h48.3a18.5,18.5,0,0,0,12.8-4.7C125.8,164.9,127.6,160.4,127.6,154.6Z"/><path class="cls-1" d="M317.3,226.2c-16.9,0-32.3-3.2-46.2-9.7a113.8,113.8,0,0,1-58.4-61.9,111.5,111.5,0,0,1-8.2-42.1A110.3,110.3,0,0,1,213,70.1,112.8,112.8,0,0,1,272.9,9.3,110.8,110.8,0,0,1,318.6,0c16.9,0,32.3,3.2,46.2,9.7a113.9,113.9,0,0,1,35.5,25.8A115.6,115.6,0,0,1,423,71.9a113,113,0,0,1,8.1,41.8,109.4,109.4,0,0,1-8.5,42.3A114.5,114.5,0,0,1,363,216.8C349.1,223.1,333.9,226.2,317.3,226.2ZM266.7,113.1a75.7,75.7,0,0,0,3.2,21.8,55.8,55.8,0,0,0,9.4,18.7,46.5,46.5,0,0,0,15.9,13.2c6.4,3.4,13.9,5.1,22.7,5.1a49.1,49.1,0,0,0,23-5.2,46.4,46.4,0,0,0,15.8-13.5,58.9,58.9,0,0,0,9.2-19,84.6,84.6,0,0,0,2.9-21.7,76.3,76.3,0,0,0-3.1-21.9,53.4,53.4,0,0,0-9.6-18.5,49.5,49.5,0,0,0-16-12.9q-9.6-4.8-22.5-4.8c-8.8,0-16.4,1.6-22.7,5A46.8,46.8,0,0,0,279,72.7a57.5,57.5,0,0,0-9.3,18.9A78.1,78.1,0,0,0,266.7,113.1Z"/><path class="cls-1" d="M557.7,226.2c-17,0-32.4-3.2-46.2-9.7A115.4,115.4,0,0,1,476,190.9a116.7,116.7,0,0,1-23-36.3,113.4,113.4,0,0,1-8.1-42.1,108.5,108.5,0,0,1,8.5-42.4,110.5,110.5,0,0,1,23.7-36A113.3,113.3,0,0,1,513.2,9.3,111.1,111.1,0,0,1,558.9,0c17,0,32.4,3.2,46.2,9.7a112.7,112.7,0,0,1,35.5,25.8,116.1,116.1,0,0,1,30.8,78.2,107.6,107.6,0,0,1-8.5,42.3,113.2,113.2,0,0,1-23.6,35.8,115.1,115.1,0,0,1-35.9,25A109.9,109.9,0,0,1,557.7,226.2ZM507.1,113.1a75.6,75.6,0,0,0,3.1,21.8,57.7,57.7,0,0,0,9.4,18.7,46.5,46.5,0,0,0,15.9,13.2q9.6,5.1,22.8,5.1a48.7,48.7,0,0,0,22.9-5.2,47.7,47.7,0,0,0,15.9-13.5,58.7,58.7,0,0,0,9.1-19,80.6,80.6,0,0,0,3-21.7A76.3,76.3,0,0,0,606,90.6a51.6,51.6,0,0,0-9.5-18.5,49.9,49.9,0,0,0-16.1-12.9C574,56,566.6,54.4,558,54.4s-16.4,1.6-22.8,5a46.8,46.8,0,0,0-15.9,13.3,57.3,57.3,0,0,0-9.2,18.9A78.1,78.1,0,0,0,507.1,113.1Z"/><path class="cls-1" d="M866.2,224.3V106.8l-37.4,82.7H796.1l-37.4-82.7V224.3H697.5V1.3h66.9l48.1,104.9L860.8,1.3h66.7v223Z"/><rect class="cls-2" y="261.9" width="186.9" height="28.74"/></g></g></svg>